<svg width="48" height="48" viewBox="0 0 48 48" fill="none" xmlns="http://www.w3.org/2000/svg">
<g clip-path="url(#clip0_146_1603)">
<path fill-rule="evenodd" clip-rule="evenodd" d="M47.562 15.438C47.7017 15.5773 47.8125 15.7429 47.8881 15.9251C47.9638 16.1073 48.0027 16.3027 48.0027 16.5C48.0027 16.6973 47.9638 16.8927 47.8881 17.0749C47.8125 17.2571 47.7017 17.4227 47.562 17.562L38.562 26.562C38.4227 26.7017 38.2571 26.8125 38.0749 26.8881C37.8927 26.9638 37.6973 27.0027 37.5 27.0027C37.3027 27.0027 37.1073 26.9638 36.9251 26.8881C36.7429 26.8125 36.5773 26.7017 36.438 26.562L31.938 22.062C31.6563 21.7803 31.4981 21.3983 31.4981 21C31.4981 20.6017 31.6563 20.2197 31.938 19.938C32.2197 19.6563 32.6017 19.4981 33 19.4981C33.3983 19.4981 33.7803 19.6563 34.062 19.938L37.5 23.379L45.438 15.438C45.5773 15.2983 45.7429 15.1875 45.9251 15.1119C46.1073 15.0362 46.3027 14.9973 46.5 14.9973C46.6973 14.9973 46.8927 15.0362 47.0749 15.1119C47.2571 15.1875 47.4227 15.2983 47.562 15.438Z" fill="#EF9600"/>
<path d="M3 42C3 42 0 42 0 39C0 36 3 27 18 27C33 27 36 36 36 39C36 42 33 42 33 42H3ZM18 24C20.3869 24 22.6761 23.0518 24.364 21.364C26.0518 19.6761 27 17.3869 27 15C27 12.6131 26.0518 10.3239 24.364 8.63604C22.6761 6.94821 20.3869 6 18 6C15.6131 6 13.3239 6.94821 11.636 8.63604C9.94821 10.3239 9 12.6131 9 15C9 17.3869 9.94821 19.6761 11.636 21.364C13.3239 23.0518 15.6131 24 18 24Z" fill="#EF9600"/>
</g>
<defs>
<clipPath id="clip0_146_1603">
<rect width="48" height="48" fill="white"/>
</clipPath>
</defs>
</svg>
