<svg width="48" height="49" viewBox="0 0 48 49" fill="none" xmlns="http://www.w3.org/2000/svg">
<path d="M42.8234 38.9454L25.7387 7.5058C25.5698 7.20102 25.3224 6.94701 25.0222 6.77014C24.7219 6.59328 24.3798 6.5 24.0314 6.5C23.6829 6.5 23.3408 6.59328 23.0406 6.77014C22.7403 6.94701 22.4929 7.20102 22.324 7.5058L5.23936 38.9454C5.0766 39.2435 4.99422 39.5789 5.00031 39.9185C5.00641 40.2581 5.10076 40.5903 5.2741 40.8824C5.44744 41.1745 5.6938 41.4164 5.98897 41.5845C6.28413 41.7525 6.61795 41.8409 6.95761 41.8409H41.1051C41.4445 41.8404 41.778 41.7517 42.0728 41.5835C42.3676 41.4152 42.6136 41.1732 42.7866 40.8812C42.9596 40.5892 43.0537 40.2572 43.0597 39.9178C43.0657 39.5784 42.9833 39.2433 42.8206 38.9454H42.8234ZM21.9923 17.3721H26.0704V28.2471H21.9923V17.3721ZM24.0314 36.4034C23.4936 36.4034 22.968 36.2439 22.5209 35.9452C22.0738 35.6465 21.7253 35.2218 21.5196 34.7251C21.3138 34.2283 21.2599 33.6816 21.3648 33.1542C21.4698 32.6269 21.7287 32.1424 22.1089 31.7622C22.4891 31.382 22.9736 31.123 23.501 31.0181C24.0283 30.9132 24.575 30.9671 25.0718 31.1728C25.5686 31.3786 25.9932 31.7271 26.2919 32.1742C26.5907 32.6213 26.7501 33.1469 26.7501 33.6846C26.7501 34.4057 26.4637 35.0972 25.9538 35.6071C25.4439 36.117 24.7524 36.4034 24.0314 36.4034Z" fill="#EF9600"/>
</svg>
