<svg width="54" height="48" viewBox="0 0 54 48" fill="none" xmlns="http://www.w3.org/2000/svg">
<path d="M27 0H37.5C38.325 0 39 0.671625 39 1.5V6C39 6.82875 38.325 7.5 37.5 7.5H30V8.95594L38.4656 15H48C51.3094 15 54 17.6906 54 21V42C54 45.3094 51.3094 48 48 48H31.5V37.5C31.5 35.0156 29.4844 33 27 33C24.5156 33 22.5 35.0156 22.5 37.5V48H6C2.68594 48 0 45.3094 0 42V21C0 17.6906 2.68594 15 6 15H15.5344L24 8.95594V3C24 1.34344 25.3406 0 27 0ZM27 18C24.5156 18 22.5 20.0156 22.5 22.5C22.5 24.9844 24.5156 27 27 27C29.4844 27 31.5 24.9844 31.5 22.5C31.5 20.0156 29.4844 18 27 18ZM7.5 21C6.67125 21 6 21.675 6 22.5V28.5C6 29.325 6.67125 30 7.5 30H10.5C11.325 30 12 29.325 12 28.5V22.5C12 21.675 11.325 21 10.5 21H7.5ZM42 28.5C42 29.325 42.675 30 43.5 30H46.5C47.325 30 48 29.325 48 28.5V22.5C48 21.675 47.325 21 46.5 21H43.5C42.675 21 42 21.675 42 22.5V28.5ZM7.5 33C6.67125 33 6 33.675 6 34.5V40.5C6 41.325 6.67125 42 7.5 42H10.5C11.325 42 12 41.325 12 40.5V34.5C12 33.675 11.325 33 10.5 33H7.5ZM43.5 33C42.675 33 42 33.675 42 34.5V40.5C42 41.325 42.675 42 43.5 42H46.5C47.325 42 48 41.325 48 40.5V34.5C48 33.675 47.325 33 46.5 33H43.5Z" fill="#EF9600"/>
</svg>
