<svg width="46" height="45" viewBox="0 0 46 45" fill="none" xmlns="http://www.w3.org/2000/svg">
<g clip-path="url(#clip0_146_1619)">
<path d="M3 26.001C3.55556 26.001 3.94444 25.7789 4.16667 25.3347C4.38889 24.8905 4.38889 24.4463 4.16667 24.0021C3.94444 23.558 3.55556 23.3359 3 23.3359C2.44444 23.3359 2.05556 23.558 1.83333 24.0021C1.61111 24.4463 1.61111 24.8905 1.83333 25.3347C2.05556 25.7789 2.44444 26.001 3 26.001ZM33.6875 24.7934C33.5486 24.6129 33.2812 24.2659 32.8854 23.7523C32.4896 23.2387 32.2014 22.8639 32.0208 22.628C31.8403 22.392 31.5764 22.0519 31.2292 21.6077C30.8819 21.1635 30.5868 20.7957 30.3438 20.5042C30.1007 20.2127 29.8194 19.8865 29.5 19.5256C29.1806 19.1647 28.8681 18.8246 28.5625 18.5054L25.9583 21.4203C24.8056 22.7251 23.3576 23.3636 21.6146 23.3359C19.8715 23.3081 18.4444 22.628 17.3333 21.2954C16.5417 20.3376 16.1493 19.2411 16.1562 18.0057C16.1632 16.7703 16.5694 15.6807 17.375 14.7368L21.0625 10.4476C20.7569 10.2949 20.4028 10.1804 20 10.1041C19.5972 10.0277 19.2674 9.98608 19.0104 9.97914C18.7535 9.9722 18.3611 9.97567 17.8333 9.98955C17.3056 10.0034 16.9653 10.0104 16.8125 10.0104C15.5347 10.0104 14.4375 10.4684 13.5208 11.3846L10.2292 14.6743H7V26.001C7.06944 26.001 7.21528 25.9975 7.4375 25.9906C7.65972 25.9836 7.8125 25.9836 7.89583 25.9906C7.97917 25.9975 8.11458 26.0114 8.30208 26.0322C8.48958 26.053 8.63194 26.0843 8.72917 26.1259C8.82639 26.1675 8.94792 26.2265 9.09375 26.3029C9.23958 26.3792 9.36806 26.4729 9.47917 26.584L15.6667 32.6637C17.2639 34.2045 18.8403 34.9749 20.3958 34.9749C21.4792 34.9749 22.3472 34.6487 23 33.9963C23.7917 34.2739 24.5729 34.2184 25.3438 33.8297C26.1146 33.441 26.6181 32.8511 26.8542 32.0599C27.8819 32.1432 28.7639 31.8378 29.5 31.1438C29.7778 30.8939 30.0278 30.5781 30.25 30.1964C30.4722 29.8147 30.5694 29.4642 30.5417 29.145C30.6806 29.2838 30.9792 29.3532 31.4375 29.3532C32.0347 29.3532 32.5694 29.2074 33.0417 28.9159C33.5139 28.6244 33.8576 28.2566 34.0729 27.8124C34.2882 27.3682 34.3715 26.872 34.3229 26.3237C34.2743 25.7754 34.0625 25.2653 33.6875 24.7934ZM37 26.001H39V15.3406H37.0625L33.7917 11.5928C32.875 10.5378 31.7014 10.0104 30.2708 10.0104H26.7917C25.5556 10.0104 24.5417 10.4754 23.75 11.4054L19.3958 16.4649C19.0069 16.923 18.8125 17.4435 18.8125 18.0265C18.8125 18.6095 19 19.13 19.375 19.5881C19.9722 20.296 20.7361 20.6569 21.6667 20.6708C22.5972 20.6847 23.3681 20.3446 23.9792 19.6505L28 15.1115C28.3472 14.7923 28.7188 14.6431 29.1146 14.6639C29.5104 14.6847 29.8368 14.8721 30.0938 15.2261C30.3507 15.58 30.4097 15.9721 30.2708 16.4025C30.4931 16.6662 30.8819 17.1034 31.4375 17.7142C31.9931 18.3249 32.4097 18.7969 32.6875 19.13C33.0903 19.6297 33.6632 20.3619 34.4062 21.3266C35.1493 22.2914 35.5972 22.8778 35.75 23.086C36.4722 24.0021 36.8889 24.9738 37 26.001ZM43 26.001C43.5556 26.001 43.9444 25.7789 44.1667 25.3347C44.3889 24.8905 44.3889 24.4463 44.1667 24.0021C43.9444 23.558 43.5556 23.3359 43 23.3359C42.4444 23.3359 42.0556 23.558 41.8333 24.0021C41.6111 24.4463 41.6111 24.8905 41.8333 25.3347C42.0556 25.7789 42.4444 26.001 43 26.001ZM47 14.008V27.3335C47 27.6944 46.8681 28.0067 46.6042 28.2705C46.3403 28.5342 46.0278 28.6661 45.6667 28.6661H36.625C36.25 29.5683 35.6806 30.3075 34.9167 30.8835C34.1528 31.4596 33.2847 31.817 32.3125 31.9558C31.8542 32.6221 31.2951 33.1877 30.6354 33.6527C29.9757 34.1177 29.2639 34.4335 28.5 34.6001C27.9167 35.3358 27.191 35.9014 26.3229 36.297C25.4549 36.6926 24.5625 36.8626 23.6458 36.8071C22.8125 37.2791 21.9375 37.5532 21.0208 37.6296C20.1042 37.7059 19.2188 37.6087 18.3646 37.3381C17.5104 37.0674 16.6979 36.6961 15.9271 36.2241C15.1562 35.7522 14.4375 35.19 13.7708 34.5376L7.79167 28.6661H0.333333C-0.0277778 28.6661 -0.340278 28.5342 -0.604167 28.2705C-0.868056 28.0067 -1 27.6944 -1 27.3335V13.3418C-1 12.9809 -0.868056 12.6685 -0.604167 12.4048C-0.340278 12.1411 -0.0277778 12.0092 0.333333 12.0092H9.10417C9.29861 11.8149 9.625 11.4817 10.0833 11.0098C10.5417 10.5378 10.8715 10.2047 11.0729 10.0104C11.2743 9.81605 11.5799 9.53843 11.9896 9.17753C12.3993 8.81663 12.75 8.55637 13.0417 8.39674C13.3333 8.23711 13.6875 8.06013 14.1042 7.8658C14.5208 7.67147 14.9514 7.53614 15.3958 7.45979C15.8403 7.38345 16.3125 7.34528 16.8125 7.34528H19.25C20.625 7.34528 21.8819 7.73394 23.0208 8.51126C24.1597 7.73394 25.4167 7.34528 26.7917 7.34528H30.2708C30.7569 7.34528 31.2222 7.38692 31.6667 7.4702C32.1111 7.55349 32.5035 7.65412 32.8438 7.77211C33.184 7.89009 33.5417 8.07401 33.9167 8.32387C34.2917 8.57372 34.6007 8.78887 34.8438 8.96932C35.0868 9.14977 35.3854 9.42391 35.7396 9.79175C36.0938 10.1596 36.3646 10.4511 36.5521 10.6662C36.7396 10.8814 37.0243 11.2145 37.4062 11.6657C37.7882 12.1168 38.0764 12.4534 38.2708 12.6755H45.6667C46.0278 12.6755 46.3403 12.8073 46.6042 13.0711C46.8681 13.3348 47 13.6471 47 14.008Z" fill="#EF9600"/>
</g>
<defs>
<clipPath id="clip0_146_1619">
<rect width="45" height="45" fill="white" transform="translate(0.5)"/>
</clipPath>
</defs>
</svg>
