<svg width="60" height="61" viewBox="0 0 60 61" fill="none" xmlns="http://www.w3.org/2000/svg">
<path d="M16.875 20.5C16.3777 20.5 15.9008 20.6975 15.5492 21.0492C15.1975 21.4008 15 21.8777 15 22.375V31.125C15 32.16 15.84 33 16.875 33H43.125C43.6223 33 44.0992 32.8025 44.4508 32.4508C44.8025 32.0992 45 31.6223 45 31.125V22.375C45 21.8777 44.8025 21.4008 44.4508 21.0492C44.0992 20.6975 43.6223 20.5 43.125 20.5H16.875ZM18.75 29.25V24.25H41.25V29.25H18.75ZM34.375 35.5C33.8777 35.5 33.4008 35.6975 33.0492 36.0492C32.6975 36.4008 32.5 36.8777 32.5 37.375V38.125C32.905 38.0425 33.3225 38 33.75 38H45V37.375C45 36.8777 44.8025 36.4008 44.4508 36.0492C44.0992 35.6975 43.6223 35.5 43.125 35.5H34.375ZM28.75 37.375V40.5C27.965 41.545 27.5 42.8425 27.5 44.25V53H9.375C8.87772 53 8.4008 52.8025 8.04917 52.4508C7.69754 52.0992 7.5 51.6223 7.5 51.125V17.33C6.54685 16.7796 5.80194 15.9302 5.38077 14.9133C4.9596 13.8964 4.88573 12.769 5.17059 11.7059C5.45546 10.6428 6.08316 9.70333 6.95633 9.03329C7.82951 8.36326 8.89937 8.00005 10 8H50C51.1006 8.00005 52.1705 8.36326 53.0437 9.03329C53.9168 9.70333 54.5445 10.6428 54.8294 11.7059C55.1143 12.769 55.0404 13.8964 54.6192 14.9133C54.1981 15.9302 53.4531 16.7796 52.5 17.33V38H48.75V18H11.25V49.25H15V37.375C15 36.8777 15.1975 36.4008 15.5492 36.0492C15.9008 35.6975 16.3777 35.5 16.875 35.5H26.875C27.3723 35.5 27.8492 35.6975 28.2008 36.0492C28.5525 36.4008 28.75 36.8777 28.75 37.375ZM8.75 13C8.75 13.3315 8.8817 13.6495 9.11612 13.8839C9.35054 14.1183 9.66848 14.25 10 14.25H50C50.3315 14.25 50.6495 14.1183 50.8839 13.8839C51.1183 13.6495 51.25 13.3315 51.25 13C51.25 12.6685 51.1183 12.3505 50.8839 12.1161C50.6495 11.8817 50.3315 11.75 50 11.75H10C9.66848 11.75 9.35054 11.8817 9.11612 12.1161C8.8817 12.3505 8.75 12.6685 8.75 13ZM25 49.25V39.25H18.75V49.25H25ZM30 44.25C30 43.2554 30.3951 42.3016 31.0984 41.5984C31.8016 40.8951 32.7554 40.5 33.75 40.5H53.75C54.7446 40.5 55.6984 40.8951 56.4016 41.5984C57.1049 42.3016 57.5 43.2554 57.5 44.25V54.25C57.5 55.2446 57.1049 56.1984 56.4016 56.9016C55.6984 57.6049 54.7446 58 53.75 58H33.75C32.7554 58 31.8016 57.6049 31.0984 56.9016C30.3951 56.1984 30 55.2446 30 54.25V44.25ZM55 45.5C54.337 45.5 53.7011 45.2366 53.2322 44.7678C52.7634 44.2989 52.5 43.663 52.5 43H50C50 44.3261 50.5268 45.5979 51.4645 46.5355C52.4021 47.4732 53.6739 48 55 48V45.5ZM55 50.5C53.6739 50.5 52.4021 51.0268 51.4645 51.9645C50.5268 52.9021 50 54.1739 50 55.5H52.5C52.5 54.837 52.7634 54.2011 53.2322 53.7322C53.7011 53.2634 54.337 53 55 53V50.5ZM35 43C35 43.663 34.7366 44.2989 34.2678 44.7678C33.7989 45.2366 33.163 45.5 32.5 45.5V48C33.8261 48 35.0979 47.4732 36.0355 46.5355C36.9732 45.5979 37.5 44.3261 37.5 43H35ZM37.5 55.5C37.5 54.1739 36.9732 52.9021 36.0355 51.9645C35.0979 51.0268 33.8261 50.5 32.5 50.5V53C33.163 53 33.7989 53.2634 34.2678 53.7322C34.7366 54.2011 35 54.837 35 55.5H37.5ZM48.125 49.25C48.125 48.0897 47.6641 46.9769 46.8436 46.1564C46.0231 45.3359 44.9103 44.875 43.75 44.875C42.5897 44.875 41.4769 45.3359 40.6564 46.1564C39.8359 46.9769 39.375 48.0897 39.375 49.25C39.375 50.4103 39.8359 51.5231 40.6564 52.3436C41.4769 53.1641 42.5897 53.625 43.75 53.625C44.9103 53.625 46.0231 53.1641 46.8436 52.3436C47.6641 51.5231 48.125 50.4103 48.125 49.25Z" fill="#EF9600"/>
</svg>
