<svg width="58" height="58" viewBox="0 0 58 58" fill="none" xmlns="http://www.w3.org/2000/svg">
<path d="M32.625 25.375C32.625 27.2978 31.8612 29.1419 30.5015 30.5015C29.1419 31.8612 27.2978 32.625 25.375 32.625C23.4522 32.625 21.6081 31.8612 20.2485 30.5015C18.8888 29.1419 18.125 27.2978 18.125 25.375C18.125 23.4522 18.8888 21.6081 20.2485 20.2485C21.6081 18.8888 23.4522 18.125 25.375 18.125C27.2978 18.125 29.1419 18.8888 30.5015 20.2485C31.8612 21.6081 32.625 23.4522 32.625 25.375ZM29 25.375C29 24.4136 28.6181 23.4916 27.9383 22.8117C27.2584 22.1319 26.3364 21.75 25.375 21.75C24.4136 21.75 23.4916 22.1319 22.8117 22.8117C22.1319 23.4916 21.75 24.4136 21.75 25.375C21.75 26.3364 22.1319 27.2584 22.8117 27.9383C23.4916 28.6181 24.4136 29 25.375 29C26.3364 29 27.2584 28.6181 27.9383 27.9383C28.6181 27.2584 29 26.3364 29 25.375ZM3.625 15.4062C3.625 12.905 5.655 10.875 8.15625 10.875H42.5938C45.095 10.875 47.125 12.905 47.125 15.4062V35.3438C47.125 37.845 45.095 39.875 42.5938 39.875H8.15625C5.655 39.875 3.625 37.845 3.625 35.3438V15.4062ZM8.15625 14.5C7.9159 14.5 7.68539 14.5955 7.51543 14.7654C7.34548 14.9354 7.25 15.1659 7.25 15.4062V18.125H9.0625C9.5432 18.125 10.0042 17.934 10.3441 17.5941C10.684 17.2542 10.875 16.7932 10.875 16.3125V14.5H8.15625ZM7.25 35.3438C7.25 35.844 7.656 36.25 8.15625 36.25H10.875V34.4375C10.875 33.9568 10.684 33.4958 10.3441 33.1559C10.0042 32.816 9.5432 32.625 9.0625 32.625H7.25V35.3438ZM14.5 34.4375V36.25H36.25V34.4375C36.25 32.9954 36.8229 31.6123 37.8426 30.5926C38.8623 29.5729 40.2454 29 41.6875 29H43.5V21.75H41.6875C40.2454 21.75 38.8623 21.1771 37.8426 20.1574C36.8229 19.1377 36.25 17.7546 36.25 16.3125V14.5H14.5V16.3125C14.5 17.7546 13.9271 19.1377 12.9074 20.1574C11.8877 21.1771 10.5046 21.75 9.0625 21.75H7.25V29H9.0625C10.5046 29 11.8877 29.5729 12.9074 30.5926C13.9271 31.6123 14.5 32.9954 14.5 34.4375ZM39.875 36.25H42.5938C42.8341 36.25 43.0646 36.1545 43.2346 35.9846C43.4045 35.8146 43.5 35.5841 43.5 35.3438V32.625H41.6875C41.2068 32.625 40.7458 32.816 40.4059 33.1559C40.066 33.4958 39.875 33.9568 39.875 34.4375V36.25ZM43.5 18.125V15.4062C43.5 15.1659 43.4045 14.9354 43.2346 14.7654C43.0646 14.5955 42.8341 14.5 42.5938 14.5H39.875V16.3125C39.875 16.7932 40.066 17.2542 40.4059 17.5941C40.7458 17.934 41.2068 18.125 41.6875 18.125H43.5ZM16.3125 47.125C15.1642 47.1254 14.0452 46.7623 13.1159 46.0877C12.1867 45.413 11.4948 44.4615 11.1396 43.3695C11.6435 43.4565 12.1582 43.5 12.6875 43.5H42.5938C44.7569 43.5 46.8315 42.6407 48.3611 41.1111C49.8907 39.5815 50.75 37.5069 50.75 35.3438V18.4331C51.8106 18.8081 52.7288 19.5028 53.378 20.4215C54.0273 21.3401 54.3756 22.4376 54.375 23.5625V35.3438C54.375 36.8909 54.0703 38.4229 53.4782 39.8522C52.8861 41.2816 52.0183 42.5804 50.9244 43.6744C49.8304 44.7683 48.5316 45.6361 47.1022 46.2282C45.6729 46.8203 44.1409 47.125 42.5938 47.125H16.3125Z" fill="#EF9600"/>
</svg>
