<svg width="48" height="48" viewBox="0 0 48 48" fill="none" xmlns="http://www.w3.org/2000/svg">
<path fill-rule="evenodd" clip-rule="evenodd" d="M17 7C17 6.20435 17.3161 5.44129 17.8787 4.87868C18.4413 4.31607 19.2044 4 20 4H28C28.7956 4 29.5587 4.31607 30.1213 4.87868C30.6839 5.44129 31 6.20435 31 7V9C31 9.79565 30.6839 10.5587 30.1213 11.1213C29.5587 11.6839 28.7956 12 28 12H20C19.2044 12 18.4413 11.6839 17.8787 11.1213C17.3161 10.5587 17 9.79565 17 9V7ZM20 6C19.7348 6 19.4804 6.10536 19.2929 6.29289C19.1054 6.48043 19 6.73478 19 7V9C19 9.26522 19.1054 9.51957 19.2929 9.70711C19.4804 9.89464 19.7348 10 20 10H28C28.2652 10 28.5196 9.89464 28.7071 9.70711C28.8946 9.51957 29 9.26522 29 9V7C29 6.73478 28.8946 6.48043 28.7071 6.29289C28.5196 6.10536 28.2652 6 28 6H20Z" fill="#EF9600"/>
<path fill-rule="evenodd" clip-rule="evenodd" d="M18 7H13C12.2044 7 11.4413 7.31607 10.8787 7.87868C10.3161 8.44129 10 9.20435 10 10V41C10 41.7957 10.3161 42.5587 10.8787 43.1213C11.4413 43.6839 12.2044 44 13 44H35C35.7956 44 36.5587 43.6839 37.1213 43.1213C37.6839 42.5587 38 41.7957 38 41V10C38 9.20435 37.6839 8.44129 37.1213 7.87868C36.5587 7.31607 35.7956 7 35 7H30V9C30 9.53043 29.7893 10.0391 29.4142 10.4142C29.0391 10.7893 28.5304 11 28 11H20C19.4696 11 18.9609 10.7893 18.5858 10.4142C18.2107 10.0391 18 9.53043 18 9V7ZM15 21C15 20.7348 15.1054 20.4804 15.2929 20.2929C15.4804 20.1054 15.7348 20 16 20H23C23.2652 20 23.5196 20.1054 23.7071 20.2929C23.8946 20.4804 24 20.7348 24 21C24 21.2652 23.8946 21.5196 23.7071 21.7071C23.5196 21.8946 23.2652 22 23 22H16C15.7348 22 15.4804 21.8946 15.2929 21.7071C15.1054 21.5196 15 21.2652 15 21ZM16 15C15.7348 15 15.4804 15.1054 15.2929 15.2929C15.1054 15.4804 15 15.7348 15 16C15 16.2652 15.1054 16.5196 15.2929 16.7071C15.4804 16.8946 15.7348 17 16 17H31.5C31.7652 17 32.0196 16.8946 32.2071 16.7071C32.3946 16.5196 32.5 16.2652 32.5 16C32.5 15.7348 32.3946 15.4804 32.2071 15.2929C32.0196 15.1054 31.7652 15 31.5 15H16ZM17 29V31H19V29H17ZM16 27C15.7348 27 15.4804 27.1054 15.2929 27.2929C15.1054 27.4804 15 27.7348 15 28V32C15 32.2652 15.1054 32.5196 15.2929 32.7071C15.4804 32.8946 15.7348 33 16 33H20C20.2652 33 20.5196 32.8946 20.7071 32.7071C20.8946 32.5196 21 32.2652 21 32V28C21 27.7348 20.8946 27.4804 20.7071 27.2929C20.5196 27.1054 20.2652 27 20 27H16ZM31 29C31 29.7956 30.6839 30.5587 30.1213 31.1213C29.5587 31.6839 28.7956 32 28 32C27.2044 32 26.4413 31.6839 25.8787 31.1213C25.3161 30.5587 25 29.7956 25 29C25 28.2044 25.3161 27.4413 25.8787 26.8787C26.4413 26.3161 27.2044 26 28 26C28.7956 26 29.5587 26.3161 30.1213 26.8787C30.6839 27.4413 31 28.2044 31 29ZM28 33.318C25.997 33.318 22 34.384 22 36.5V39H34V36.5C34 34.384 30.003 33.318 28 33.318Z" fill="#EF9600"/>
</svg>
