<svg width="48" height="48" viewBox="0 0 48 48" fill="none" xmlns="http://www.w3.org/2000/svg">
<path fill-rule="evenodd" clip-rule="evenodd" d="M34 16C34 21.523 29.523 26 24 26C18.477 26 14 21.523 14 16C14 10.477 18.477 6 24 6C29.523 6 34 10.477 34 16ZM32 16C32 18.1217 31.1571 20.1566 29.6569 21.6569C28.1566 23.1571 26.1217 24 24 24C21.8783 24 19.8434 23.1571 18.3431 21.6569C16.8429 20.1566 16 18.1217 16 16C16 13.8783 16.8429 11.8434 18.3431 10.3431C19.8434 8.84285 21.8783 8 24 8C26.1217 8 28.1566 8.84285 29.6569 10.3431C31.1571 11.8434 32 13.8783 32 16Z" fill="#EF9600"/>
<path d="M30.5 28C30.3936 27.9758 30.2822 27.9886 30.184 28.0362C30.0858 28.0838 30.0068 28.1635 29.96 28.262L26 39.572V36L25.425 31.979C25.6086 31.9403 25.7775 31.8508 25.9126 31.7207C26.0477 31.5905 26.1435 31.425 26.189 31.243L26.689 29.243C26.7259 29.0956 26.7288 28.9418 26.6973 28.7931C26.6659 28.6445 26.601 28.505 26.5076 28.3852C26.4142 28.2654 26.2948 28.1684 26.1583 28.1017C26.0218 28.0349 25.8719 28.0002 25.72 28H22.282C22.1301 28 21.9802 28.0347 21.8437 28.1013C21.7072 28.1679 21.5877 28.2648 21.4942 28.3845C21.4007 28.5042 21.3357 28.6436 21.3041 28.7922C21.2725 28.9408 21.2752 29.0946 21.312 29.242L21.812 31.242C21.8573 31.4242 21.953 31.5899 22.0881 31.7202C22.2232 31.8506 22.3923 31.9402 22.576 31.979L22 36V38.696L18.04 28.262C17.9932 28.1635 17.9142 28.0838 17.816 28.0362C17.7178 27.9886 17.6064 27.9758 17.5 28C17.1177 28.0923 16.735 28.183 16.352 28.272C14.09 28.802 11.294 29.456 9.808 30.432C8.045 31.589 7 32.953 7 34.5V41H41V34.5C41 32.953 39.955 31.59 38.192 30.432C36.706 29.456 33.91 28.802 31.648 28.272C31.245 28.178 30.858 28.088 30.5 28Z" fill="#EF9600"/>
</svg>
