<svg width="56" height="55" viewBox="0 0 56 55" fill="none" xmlns="http://www.w3.org/2000/svg">
<path d="M44.0417 32.0833V13.75C44.0417 11.2292 41.9792 9.16667 39.4583 9.16667H7.37499C4.85416 9.16667 2.79166 11.2292 2.79166 13.75V32.0833C2.79166 34.6042 4.85416 36.6667 7.37499 36.6667H39.4583C41.9792 36.6667 44.0417 34.6042 44.0417 32.0833ZM39.4583 32.0833H7.37499V13.75H39.4583V32.0833ZM23.4167 16.0417C19.6125 16.0417 16.5417 19.1125 16.5417 22.9167C16.5417 26.7208 19.6125 29.7917 23.4167 29.7917C27.2208 29.7917 30.2917 26.7208 30.2917 22.9167C30.2917 19.1125 27.2208 16.0417 23.4167 16.0417ZM53.2083 16.0417V41.25C53.2083 43.7708 51.1458 45.8333 48.625 45.8333H9.66666V41.25H48.625V16.0417H53.2083Z" fill="#EF9600"/>
</svg>
