<svg width="48" height="49" viewBox="0 0 48 49" fill="none" xmlns="http://www.w3.org/2000/svg">
<path d="M15.9999 21.5L22.1302 7.48816C22.5987 6.41734 23.8816 5.97472 24.9107 6.52886L35.9996 12.5" stroke="#EF9600" stroke-width="4" stroke-linecap="round" stroke-linejoin="round"/>
<path d="M26 31.5V12.5H42V41.5H26V37.5" stroke="#EF9600" stroke-width="4" stroke-linecap="round" stroke-linejoin="round"/>
<path d="M4 44.5C13 44.5 13.7691 39.1834 16.3302 38.8125C19.3527 38.3748 22.4317 38.1497 25.1033 37.5C28.497 36.6747 31.2335 35.6121 32.3623 35.1448C32.7291 34.9929 33.0343 34.7285 33.2178 34.3764C33.7811 33.295 34.7903 30.9101 32.9209 30.6094C30.493 30.2188 22.9806 33.0833 19.1276 32.5625C15.2746 32.0417 16.6293 29.4375 17.8433 28.6563C21.1401 26.5345 25 27.5 25 27.5V18.5C25 18.5 10.3335 22.25 5 28.6563" stroke="#EF9600" stroke-width="4" stroke-linecap="round" stroke-linejoin="round"/>
<path d="M32 21.5H42" stroke="#EF9600" stroke-width="4" stroke-linecap="round" stroke-linejoin="round"/>
</svg>
