<svg width="48" height="49" viewBox="0 0 48 49" fill="none" xmlns="http://www.w3.org/2000/svg">
<mask id="mask0_146_1633" style="mask-type:alpha" maskUnits="userSpaceOnUse" x="2" y="4" width="44" height="41">
<path d="M24 20.5C24.9193 20.5 25.8295 20.3189 26.6788 19.9672C27.5281 19.6154 28.2997 19.0998 28.9497 18.4497C29.5998 17.7997 30.1154 17.0281 30.4672 16.1788C30.8189 15.3295 31 14.4193 31 13.5C31 12.5807 30.8189 11.6705 30.4672 10.8212C30.1154 9.97194 29.5998 9.20026 28.9497 8.55025C28.2997 7.90024 27.5281 7.38463 26.6788 7.03284C25.8295 6.68106 24.9193 6.5 24 6.5C22.1435 6.5 20.363 7.2375 19.0503 8.55025C17.7375 9.86301 17 11.6435 17 13.5C17 15.3565 17.7375 17.137 19.0503 18.4497C20.363 19.7625 22.1435 20.5 24 20.5V20.5Z" fill="#555555" stroke="white" stroke-width="4" stroke-linecap="round" stroke-linejoin="round"/>
<path d="M36 7.755C36.9266 8.39938 37.6834 9.25848 38.2059 10.2589C38.7283 11.2594 39.0007 12.3714 39 13.5C39.0007 14.6286 38.7283 15.7407 38.2059 16.7411C37.6834 17.7415 36.9266 18.6006 36 19.245M12 7.755C11.0734 8.39938 10.3166 9.25848 9.79415 10.2589C9.27173 11.2594 8.99926 12.3714 9 13.5C8.99936 14.7078 9.31143 15.8953 9.90585 16.9467C10.5003 17.9981 11.3568 18.8778 12.392 19.5L12 7.755Z" stroke="white" stroke-width="4" stroke-linecap="round" stroke-linejoin="round"/>
<path d="M12 40.5V42.5H36V40.5C36 36.773 36 34.909 35.391 33.438C34.5788 31.4779 33.0213 29.9207 31.061 29.109C29.591 28.5 27.727 28.5 24 28.5C20.273 28.5 18.409 28.5 16.939 29.109C15.9683 29.511 15.0863 30.1004 14.3433 30.8433C13.6004 31.5863 13.011 32.4683 12.609 33.439C12 34.908 12 36.773 12 40.5Z" fill="#555555" stroke="white" stroke-width="4" stroke-linecap="round" stroke-linejoin="round"/>
<path d="M4 42.5V41.3C4 36.82 4 34.58 4.872 32.868C5.63898 31.3628 6.86277 30.139 8.368 29.372M44 42.5V41.3C44 36.82 44 34.58 43.128 32.868C42.361 31.3628 41.1372 30.139 39.632 29.372L44 42.5Z" stroke="white" stroke-width="4" stroke-linecap="round" stroke-linejoin="round"/>
</mask>
<g mask="url(#mask0_146_1633)">
<path d="M0 0.5H48V48.5H0V0.5Z" fill="#EF9600"/>
</g>
</svg>
