<svg width="48" height="48" viewBox="0 0 48 48" fill="none" xmlns="http://www.w3.org/2000/svg">
<path d="M28.8 7.68V39.36H5.76001V7.68H28.8ZM32.64 3.84H1.92001V44.16H32.64V3.84ZM8.64001 11.52H25.92V15.36H8.64001V11.52ZM8.64001 18.24H25.92V22.08H8.64001V18.24ZM8.64001 24.96H25.92V28.8H8.64001V24.96ZM8.64001 31.68H25.92V35.52H8.64001V31.68ZM38.4 11.52H46.08V38.4H38.4V11.52ZM42.2458 0.959999C40.1395 0.959999 38.4 2.6544 38.4 4.73952V8.64H46.08V4.73952C46.08 2.6544 44.3434 0.959999 42.2458 0.959999ZM38.3405 41.28L42.2199 47.4115L46.08 41.28H38.3405Z" fill="#EF9600"/>
</svg>
