<svg width="46" height="45" viewBox="0 0 46 45" fill="none" xmlns="http://www.w3.org/2000/svg">
<path fill-rule="evenodd" clip-rule="evenodd" d="M25.1092 2.10938C25.1092 1.54993 24.887 1.01341 24.4914 0.617822C24.0958 0.222237 23.5593 0 22.9998 0C22.4404 0 21.9039 0.222237 21.5083 0.617822C21.1127 1.01341 20.8905 1.54993 20.8905 2.10938V5.625H18.123C17.2651 5.625 16.4242 5.85 15.6789 6.27187L12.0564 8.34469C11.9494 8.40591 11.8281 8.43792 11.7048 8.4375H5.4217C4.86226 8.4375 4.32574 8.65974 3.93015 9.05532C3.53457 9.45091 3.31233 9.98743 3.31233 10.5469C3.31233 11.1063 3.53457 11.6428 3.93015 12.0384C4.32574 12.434 4.86226 12.6562 5.4217 12.6562H6.62545L0.685454 25.8525C0.510005 26.2429 0.457472 26.6774 0.534834 27.0984C0.612196 27.5194 0.81579 27.9069 1.11858 28.2094L2.6092 26.7188L1.11858 28.2094V28.2122L1.1242 28.2178L1.12983 28.2234L1.1467 28.2403L1.1917 28.2825L1.31827 28.395C1.90977 28.8908 2.55731 29.3155 3.24764 29.6606C5.01869 30.5241 6.96714 30.9614 8.93733 30.9375C11.4123 30.9375 13.3136 30.3187 14.627 29.6606C15.3173 29.3155 15.9649 28.8907 16.5564 28.395L16.683 28.2825L16.728 28.2403L16.7448 28.2234L16.7505 28.2178L16.7533 28.2122L15.2655 26.7188L16.7561 28.2094C17.0589 27.9069 17.2625 27.5194 17.3398 27.0984C17.4172 26.6774 17.3647 26.2429 17.1892 25.8525L11.2492 12.6562H11.7048C12.5626 12.6562 13.4036 12.4312 14.1489 12.0094L17.7742 9.93656C17.8804 9.87581 18.0006 9.84382 18.123 9.84375H20.8905V36.5625H13.8592C13.2998 36.5625 12.7632 36.7847 12.3677 37.1803C11.9721 37.5759 11.7498 38.1124 11.7498 38.6719C11.7498 39.2313 11.9721 39.7678 12.3677 40.1634C12.7632 40.559 13.2998 40.7812 13.8592 40.7812H32.1405C32.6999 40.7812 33.2364 40.559 33.632 40.1634C34.0276 39.7678 34.2498 39.2313 34.2498 38.6719C34.2498 38.1124 34.0276 37.5759 33.632 37.1803C33.2364 36.7847 32.6999 36.5625 32.1405 36.5625H25.1092V9.84375H27.8767C27.9991 9.84382 28.1193 9.87581 28.2255 9.93656L31.8536 12.0066C32.5961 12.4341 33.437 12.6562 34.2948 12.6562H34.7505L28.8105 25.8525C28.635 26.2429 28.5825 26.6774 28.6598 27.0984C28.7372 27.5194 28.9408 27.9069 29.2436 28.2094L30.7342 26.7188L29.2436 28.2094V28.2122L29.2492 28.2178L29.2548 28.2234L29.2717 28.2403L29.3167 28.2825L29.4433 28.395C30.0348 28.8907 30.6823 29.3155 31.3726 29.6606C33.1437 30.5241 35.0921 30.9614 37.0623 30.9375C39.5373 30.9375 41.4386 30.3187 42.752 29.6606C43.4424 29.3156 44.0899 28.8908 44.6814 28.395L44.808 28.2825L44.8361 28.2544L44.853 28.2403L44.8698 28.2234L44.8755 28.2178L44.8783 28.2122L43.3905 26.7188L44.8811 28.2094C45.1839 27.9069 45.3875 27.5194 45.4648 27.0984C45.5422 26.6774 45.4897 26.2429 45.3142 25.8525L39.377 12.6562H40.578C41.1374 12.6562 41.6739 12.434 42.0695 12.0384C42.4651 11.6428 42.6873 11.1063 42.6873 10.5469C42.6873 9.98743 42.4651 9.45091 42.0695 9.05532C41.6739 8.65974 41.1374 8.4375 40.578 8.4375H34.2948C34.1725 8.43743 34.0523 8.40544 33.9461 8.34469L30.318 6.27469C29.5754 5.84989 28.735 5.62597 27.8795 5.625H25.1092V2.10938ZM5.26702 25.9509C6.06858 26.3306 7.28639 26.7188 8.93733 26.7188C10.5883 26.7188 11.8061 26.3306 12.6076 25.9509L8.93733 17.7947L5.26702 25.9509ZM33.392 25.9509C34.1936 26.3306 35.4114 26.7188 37.0623 26.7188C38.7133 26.7188 39.9311 26.3306 40.7326 25.9509L37.0623 17.7947L33.392 25.9509Z" fill="#EF9600"/>
</svg>
