<svg width="48" height="48" viewBox="0 0 48 48" fill="none" xmlns="http://www.w3.org/2000/svg">
<path d="M48 42.6667C48 44.0812 47.4381 45.4377 46.4379 46.4379C45.4377 47.4381 44.0812 48 42.6667 48H5.33333C3.91885 48 2.56229 47.4381 1.5621 46.4379C0.561903 45.4377 0 44.0812 0 42.6667V5.33333C0 3.91885 0.561903 2.56229 1.5621 1.5621C2.56229 0.561903 3.91885 0 5.33333 0L42.6667 0C44.0812 0 45.4377 0.561903 46.4379 1.5621C47.4381 2.56229 48 3.91885 48 5.33333V42.6667Z" fill="#EF9600"/>
<path d="M41.3333 14.6667C41.3333 16.7884 40.4905 18.8232 38.9902 20.3235C37.4899 21.8238 35.4551 22.6667 33.3333 22.6667C31.2116 22.6667 29.1768 21.8238 27.6765 20.3235C26.1762 18.8232 25.3333 16.7884 25.3333 14.6667H41.3333ZM41.3333 6.66667H25.3333C24.9797 6.66667 24.6406 6.80715 24.3905 7.0572C24.1405 7.30724 24 7.64638 24 8.00001C24 8.24267 24.0653 8.75867 24.1787 9.34267C24.1187 9.34001 24.0613 9.33334 24 9.33334C22.528 9.33334 21.3333 9.93067 21.3333 10.6667C21.3333 11.4027 22.528 12 24 12C24.4933 12 24.912 11.996 25.2947 11.9893C25.3067 11.992 25.32 12 25.3333 12H41.3333C42.0707 12 42.6667 8.73601 42.6667 8.00001C42.6667 7.26401 42.0707 6.66667 41.3333 6.66667ZM20 34.6667C13.316 34.6667 9.92267 29.692 9.78133 29.4787C9.39348 28.8902 9.25436 28.1721 9.39437 27.4814C9.53439 26.7907 9.94215 26.1835 10.5285 25.7925C11.1149 25.4015 11.8322 25.2585 12.5237 25.3949C13.2152 25.5312 13.8246 25.9357 14.2187 26.52C14.284 26.6133 16.2307 29.3333 20 29.3333C23.8 29.3333 25.7627 26.5493 25.7813 26.5213C26.1817 25.9518 26.7888 25.5613 27.473 25.4332C28.1573 25.305 28.8646 25.4495 29.4438 25.8356C30.0231 26.2217 30.4285 26.819 30.5735 27.4999C30.7185 28.1807 30.5917 28.8914 30.22 29.48C30.0787 29.692 26.684 34.6667 20 34.6667Z" fill="#F5F8FA"/>
<path d="M37.3333 25.3333H28C27.2928 25.3333 26.6145 25.6143 26.1144 26.1144C25.6143 26.6145 25.3333 27.2928 25.3333 28V37.3333L37.3333 25.3333ZM41.0933 26.9067L25.3333 42.6667C25.3333 43.3739 25.6143 44.0522 26.1144 44.5523C26.6145 45.0524 27.2928 45.3333 28 45.3333H38.6667C39.3739 45.3333 40.0522 45.0524 40.5523 44.5523C41.0524 44.0522 41.3333 43.3739 41.3333 42.6667V28C41.3333 27.6093 41.2453 27.2413 41.0933 26.9067ZM16 4.05333L8 5.96C7.79386 6.02365 7.60128 6.12491 7.432 6.25866L14.6667 7.94666C15.4027 8.156 16 8.924 16 9.66V17.3867C16.736 17.1773 17.3333 16.4107 17.3333 15.6733V5.00666C17.3333 4.26933 16.736 3.844 16 4.05333Z" fill="#F5F8FA"/>
<path d="M13.3333 22.34C13.3333 23.0773 12.736 23.5027 12 23.2933L5.33333 21.3867C4.59733 21.1773 4 20.4107 4 19.6733V9.00666C4 8.26933 4.59733 7.844 5.33333 8.05333L12 9.96C12.736 10.1693 13.3333 10.9373 13.3333 11.6733V22.34Z" fill="#F5F8FA"/>
</svg>
