<svg width="6" height="7" viewBox="0 0 6 7" fill="none" xmlns="http://www.w3.org/2000/svg">
<path fill-rule="evenodd" clip-rule="evenodd" d="M5.67952 1.01613C5.42611 0.85775 5.10934 1.14284 4.95095 1.30123C4.53915 1.68135 4.22238 2.15651 3.84226 2.56831C3.43046 3.01179 3.01865 3.48694 2.60685 3.93042C2.35344 4.18383 2.10002 4.43725 1.94164 4.75402C1.56151 4.40557 1.24474 3.99377 0.832941 3.677C0.547848 3.45526 0.0410156 3.29688 0.0410156 3.83539C0.0726926 4.53228 0.674556 5.29253 1.14971 5.79936C1.33977 6.0211 1.59319 6.21116 1.90996 6.24284C2.25841 6.27452 2.63853 5.83104 2.86027 5.6093C3.24039 5.1975 3.55716 4.72234 3.90561 4.31054C4.34909 3.74036 4.82424 3.20185 5.26772 2.63166C5.55281 2.28321 6.40809 1.42794 5.74288 1.04781L5.67952 1.01613Z" fill="#EF9600"/>
</svg>
